<svg xmlns="http://www.w3.org/2000/svg" version="1.1" xmlns:xlink="http://www.w3.org/1999/xlink" xmlns:svgjs="http://svgjs.dev/svgjs" width="1440" height="560" preserveAspectRatio="none" viewBox="0 0 1440 560"><g mask="url(&quot;#SvgjsMask3166&quot;)" fill="none"><rect width="1440" height="560" x="0" y="0" fill="rgba(228, 226, 237, 1)"></rect><use xlink:href="#SvgjsG3173" transform="translate(0, 0)" fill="rgba(231, 206, 231, 1)"></use><use xlink:href="#SvgjsG3173" transform="translate(840, 0)" fill="rgba(231, 206, 231, 1)"></use></g><defs><mask id="SvgjsMask3166"><rect width="1440" height="560" fill="#ffffff"></rect></mask><g id="SvgjsG3169"><path d="M8.142 3.218a0.876 0.876 0 1 0 0-1.751 0.876 0.876 0 0 0 0 1.753m1.399 0.284H6.725c-0.622 0-1.12 0.51-1.12 1.141v2.102c0 0.523 0.69 0.523 0.69 0v-2.027h0.72V7.271c0.366 0.089 0.741 0.153 1.138 0.153 0.391 0 0.764-0.066 1.129-0.153V4.711h0.711v2.03c0 0.526 0.688 0.526 0.688 0V4.658a1.145 1.145 0 0 0-1.138-1.156m1.92 4.59a5.913 5.913 0 0 1-6.635 0.018l-0.743 1.102a7.182 7.182 0 0 0 4.054 1.24c1.511 0 2.912-0.462 4.071-1.254l-0.747-1.109z"></path><path d="M12.882 10.37a8.396 8.396 0 0 1-4.74 1.454 8.412 8.412 0 0 1-4.722-1.435l-0.75 1.081a9.703 9.703 0 0 0 5.472 1.68c2.032 0 3.916-0.622 5.483-1.682l-0.743-1.095z"></path><path d="M14.293 12.629a10.916 10.916 0 0 1-6.154 1.888A10.933 10.933 0 0 1 1.991 12.633l-0.729 1.097a12.208 12.208 0 0 0 6.88 2.105 12.231 12.231 0 0 0 6.898-2.119l-0.747-1.088z"></path></g><g id="SvgjsG3168"><path d="M8.312 4.802l0 0.521c0.492-0.069 0.443-0.509 0-0.52z m-0.51-0.627V3.715c-0.365 0.064-0.358 0.454 0 0.46z"></path><path d="M8.055 2.506c-1.128 0-2.044 0.915-2.044 2.043 0 1.129 0.915 2.044 2.045 2.044 1.129 0 2.043-0.915 2.043-2.044 0-1.128-0.915-2.043-2.043-2.043z m0.251 3.336v0.364h-0.507v-0.37c-0.29-0.043-0.822-0.323-0.855-0.924h0.534c0.034 0.154 0.078 0.34 0.321 0.409l-0.001-0.605c-0.334-0.048-0.814-0.194-0.814-0.73 0-0.602 0.666-0.789 0.813-0.789v-0.364h0.502v0.364c0.338 0.02 0.83 0.302 0.83 0.84h-0.528c-0.014-0.16-0.137-0.317-0.296-0.327v0.554c0.403 0.041 0.877 0.195 0.877 0.738 0 0.473-0.475 0.818-0.877 0.84z m1.733 5.54c-1.129 0-2.044 0.915-2.043 2.044s0.915 2.043 2.043 2.043 2.043-0.915 2.043-2.043c0-1.129-0.915-2.044-2.043-2.044zM10.955 13.739v0.499h-0.636v0.701h-0.542V14.238h-0.68v-0.49h0.688l-0.894-1.576h0.593l0.551 0.972 0.597-0.972h0.547L10.293 13.739h0.662z m-7.36-4.673c-1.129 0-2.044 0.915-2.043 2.044S2.467 13.154 3.595 13.154s2.044-0.915 2.044-2.044-0.915-2.044-2.044-2.044z m0.065 1.654v0.486h-0.367v1.165H2.773v-1.162h-0.31v-0.484h0.31v-0.436c0-0.168 0.163-0.68 0.777-0.68 0.627 0 0.762 0.494 0.762 0.908h-0.511c0-0.265-0.037-0.404-0.246-0.404-0.226 0-0.262 0.155-0.262 0.4v0.206h0.366z m1.173 0.482c-0.421 0.052-0.516 0.276-0.517 0.554v0.616h-0.516V10.72h0.516v0.258c0.112-0.129 0.241-0.267 0.517-0.267v0.491z"></path><path d="M0 0.56v7.93h9.395c0.178 0.948 1.009 1.666 2.009 1.666s1.83-0.718 2.008-1.666H16V0.56H0z m11.195 7.221h0.464v0.441h-0.378c0.047 0.403-0.185 0.572-0.198 0.707h1.264v0.441H10.456v-0.441c0.215-0.144 0.327-0.508 0.258-0.703h-0.396v-0.448h0.318c-0.086-0.203-0.086-0.27-0.086-0.448s0.147-0.758 0.912-0.754c0.705 0.004 0.91 0.584 0.91 1l-0.537 0c-0.036-0.251-0.135-0.458-0.368-0.458-0.357 0-0.358 0.224-0.357 0.301s0.013 0.262 0.086 0.364z m3.297-0.798h-1.386c-0.366-0.551-0.992-0.914-1.703-0.914S10.067 6.432 9.701 6.982H1.508V2.068h12.984V6.982z"></path></g><g id="SvgjsG3171"><path d="M15.964 4.774l-1.312 10.327H10.223L8.916 4.774h5.408L15.395 1.04 16 1.21l-1.024 3.562 0.988 0.002zM8.29 10.788s0.166-1.502-2.131-1.502H2.5c-2.293 0-2.131 1.502-2.132 1.502h7.922zM0.368 13.595s-0.162 1.506 2.132 1.506h3.659c2.297 0 2.131-1.506 2.131-1.506H0.369z m7.578-0.727a0.68 0.68 0 0 0 0.68-0.68c0-0.372-0.304-0.676-0.68-0.676H0.68C0.306 11.512 0 11.816 0 12.188a0.682 0.682 0 0 0 0.68 0.68h7.266z"></path></g><g id="SvgjsG3170"><path d="M15.769 13.134v-0.004s-3.022-3.019-3.024-3.02a0.605 0.605 0 0 0-0.858 0.002L10.496 11.509c-0.541 0.541-1.238 0.061-2.577-1.031-0.886-0.722-1.905-1.693-2.788-2.788-0.62-0.768-1.168-1.575-0.602-2.141 0.001-0.001 1.397-1.393 1.398-1.395l0.001-0.003c0.251-0.25 0.226-0.634-0.003-0.862v-0.004L2.813 0.177c-0.24-0.239-0.623-0.234-0.858 0.002L0.553 1.58C-0.024 2.303-1.307 5.747 4.194 11.385c5.795 5.94 9.534 4.669 10.177 3.999 0 0 1.4-1.383 1.4-1.384l0.001-0.003c0.251-0.251 0.225-0.635-0.002-0.864z"></path></g><g id="SvgjsG3172"><path d="M8 2.134v11.732c-3.234 0-5.866-2.631-5.866-5.866 0-3.234 2.631-5.865 5.866-5.866m0-1.466c-4.05 0-7.333 3.283-7.333 7.332s3.283 7.333 7.333 7.334 7.333-3.284 7.333-7.334-3.284-7.332-7.333-7.332z"></path></g><g id="SvgjsG3167"><path d="M0 13.15h2.917V10.189h2.891V7.203h2.943V4.277h2.917V1.36H16v1.485H13.117v2.926h-2.916v2.96h-2.917V11.674h-2.935v2.978H0z"></path></g><g id="SvgjsG3173"><use xlink:href="#SvgjsG3167" transform="translate(0, 0) scale(2.8)" fill="rgba(231, 206, 231, 1)"></use><use xlink:href="#SvgjsG3168" transform="translate(0, 84) scale(2.8)" fill="rgba(231, 206, 231, 1)"></use><use xlink:href="#SvgjsG3167" transform="translate(0, 168) scale(2.8)" fill="rgba(231, 206, 231, 1)"></use><use xlink:href="#SvgjsG3169" transform="translate(0, 252) scale(2.8)" fill="rgba(231, 206, 231, 1)"></use><use xlink:href="#SvgjsG3168" transform="translate(0, 336) scale(2.8)" fill="rgba(231, 206, 231, 1)"></use><use xlink:href="#SvgjsG3170" transform="translate(0, 420) scale(2.8)" fill="rgba(231, 206, 231, 1)"></use><use xlink:href="#SvgjsG3167" transform="translate(0, 504) scale(2.8)" fill="rgba(231, 206, 231, 1)"></use><use xlink:href="#SvgjsG3167" transform="translate(84, 0) scale(2.8)" fill="rgba(231, 206, 231, 1)"></use><use xlink:href="#SvgjsG3169" transform="translate(84, 84) scale(2.8)" fill="rgba(231, 206, 231, 1)"></use><use xlink:href="#SvgjsG3171" transform="translate(84, 168) scale(2.8)" fill="rgba(231, 206, 231, 1)"></use><use xlink:href="#SvgjsG3172" transform="translate(84, 252) scale(2.8)" fill="rgba(231, 206, 231, 1)"></use><use xlink:href="#SvgjsG3170" transform="translate(84, 336) scale(2.8)" fill="rgba(231, 206, 231, 1)"></use><use xlink:href="#SvgjsG3171" transform="translate(84, 420) scale(2.8)" fill="rgba(231, 206, 231, 1)"></use><use xlink:href="#SvgjsG3172" transform="translate(84, 504) scale(2.8)" fill="rgba(231, 206, 231, 1)"></use><use xlink:href="#SvgjsG3170" transform="translate(168, 0) scale(2.8)" fill="rgba(231, 206, 231, 1)"></use><use xlink:href="#SvgjsG3172" transform="translate(168, 84) scale(2.8)" fill="rgba(231, 206, 231, 1)"></use><use xlink:href="#SvgjsG3169" transform="translate(168, 168) scale(2.8)" fill="rgba(231, 206, 231, 1)"></use><use xlink:href="#SvgjsG3171" transform="translate(168, 252) scale(2.8)" fill="rgba(231, 206, 231, 1)"></use><use xlink:href="#SvgjsG3168" transform="translate(168, 336) scale(2.8)" fill="rgba(231, 206, 231, 1)"></use><use xlink:href="#SvgjsG3170" transform="translate(168, 420) scale(2.8)" fill="rgba(231, 206, 231, 1)"></use><use xlink:href="#SvgjsG3172" transform="translate(168, 504) scale(2.8)" fill="rgba(231, 206, 231, 1)"></use><use xlink:href="#SvgjsG3171" transform="translate(252, 0) scale(2.8)" fill="rgba(231, 206, 231, 1)"></use><use xlink:href="#SvgjsG3171" transform="translate(252, 84) scale(2.8)" fill="rgba(231, 206, 231, 1)"></use><use xlink:href="#SvgjsG3170" transform="translate(252, 168) scale(2.8)" fill="rgba(231, 206, 231, 1)"></use><use xlink:href="#SvgjsG3169" transform="translate(252, 252) scale(2.8)" fill="rgba(231, 206, 231, 1)"></use><use xlink:href="#SvgjsG3169" transform="translate(252, 336) scale(2.8)" fill="rgba(231, 206, 231, 1)"></use><use xlink:href="#SvgjsG3172" transform="translate(252, 420) scale(2.8)" fill="rgba(231, 206, 231, 1)"></use><use xlink:href="#SvgjsG3168" transform="translate(252, 504) scale(2.8)" fill="rgba(231, 206, 231, 1)"></use><use xlink:href="#SvgjsG3168" transform="translate(336, 0) scale(2.8)" fill="rgba(231, 206, 231, 1)"></use><use xlink:href="#SvgjsG3170" transform="translate(336, 84) scale(2.8)" fill="rgba(231, 206, 231, 1)"></use><use xlink:href="#SvgjsG3171" transform="translate(336, 168) scale(2.8)" fill="rgba(231, 206, 231, 1)"></use><use xlink:href="#SvgjsG3167" transform="translate(336, 252) scale(2.8)" fill="rgba(231, 206, 231, 1)"></use><use xlink:href="#SvgjsG3171" transform="translate(336, 336) scale(2.8)" fill="rgba(231, 206, 231, 1)"></use><use xlink:href="#SvgjsG3172" transform="translate(336, 420) scale(2.8)" fill="rgba(231, 206, 231, 1)"></use><use xlink:href="#SvgjsG3172" transform="translate(336, 504) scale(2.8)" fill="rgba(231, 206, 231, 1)"></use><use xlink:href="#SvgjsG3169" transform="translate(420, 0) scale(2.8)" fill="rgba(231, 206, 231, 1)"></use><use xlink:href="#SvgjsG3169" transform="translate(420, 84) scale(2.8)" fill="rgba(231, 206, 231, 1)"></use><use xlink:href="#SvgjsG3172" transform="translate(420, 168) scale(2.8)" fill="rgba(231, 206, 231, 1)"></use><use xlink:href="#SvgjsG3170" transform="translate(420, 252) scale(2.8)" fill="rgba(231, 206, 231, 1)"></use><use xlink:href="#SvgjsG3170" transform="translate(420, 336) scale(2.8)" fill="rgba(231, 206, 231, 1)"></use><use xlink:href="#SvgjsG3168" transform="translate(420, 420) scale(2.8)" fill="rgba(231, 206, 231, 1)"></use><use xlink:href="#SvgjsG3167" transform="translate(420, 504) scale(2.8)" fill="rgba(231, 206, 231, 1)"></use><use xlink:href="#SvgjsG3171" transform="translate(504, 0) scale(2.8)" fill="rgba(231, 206, 231, 1)"></use><use xlink:href="#SvgjsG3171" transform="translate(504, 84) scale(2.8)" fill="rgba(231, 206, 231, 1)"></use><use xlink:href="#SvgjsG3168" transform="translate(504, 168) scale(2.8)" fill="rgba(231, 206, 231, 1)"></use><use xlink:href="#SvgjsG3172" transform="translate(504, 252) scale(2.8)" fill="rgba(231, 206, 231, 1)"></use><use xlink:href="#SvgjsG3171" transform="translate(504, 336) scale(2.8)" fill="rgba(231, 206, 231, 1)"></use><use xlink:href="#SvgjsG3172" transform="translate(504, 420) scale(2.8)" fill="rgba(231, 206, 231, 1)"></use><use xlink:href="#SvgjsG3171" transform="translate(504, 504) scale(2.8)" fill="rgba(231, 206, 231, 1)"></use><use xlink:href="#SvgjsG3171" transform="translate(588, 0) scale(2.8)" fill="rgba(231, 206, 231, 1)"></use><use xlink:href="#SvgjsG3171" transform="translate(588, 84) scale(2.8)" fill="rgba(231, 206, 231, 1)"></use><use xlink:href="#SvgjsG3168" transform="translate(588, 168) scale(2.8)" fill="rgba(231, 206, 231, 1)"></use><use xlink:href="#SvgjsG3168" transform="translate(588, 252) scale(2.8)" fill="rgba(231, 206, 231, 1)"></use><use xlink:href="#SvgjsG3172" transform="translate(588, 336) scale(2.8)" fill="rgba(231, 206, 231, 1)"></use><use xlink:href="#SvgjsG3172" transform="translate(588, 420) scale(2.8)" fill="rgba(231, 206, 231, 1)"></use><use xlink:href="#SvgjsG3167" transform="translate(588, 504) scale(2.8)" fill="rgba(231, 206, 231, 1)"></use><use xlink:href="#SvgjsG3172" transform="translate(672, 0) scale(2.8)" fill="rgba(231, 206, 231, 1)"></use><use xlink:href="#SvgjsG3172" transform="translate(672, 84) scale(2.8)" fill="rgba(231, 206, 231, 1)"></use><use xlink:href="#SvgjsG3167" transform="translate(672, 168) scale(2.8)" fill="rgba(231, 206, 231, 1)"></use><use xlink:href="#SvgjsG3169" transform="translate(672, 252) scale(2.8)" fill="rgba(231, 206, 231, 1)"></use><use xlink:href="#SvgjsG3172" transform="translate(672, 336) scale(2.8)" fill="rgba(231, 206, 231, 1)"></use><use xlink:href="#SvgjsG3170" transform="translate(672, 420) scale(2.8)" fill="rgba(231, 206, 231, 1)"></use><use xlink:href="#SvgjsG3170" transform="translate(672, 504) scale(2.8)" fill="rgba(231, 206, 231, 1)"></use><use xlink:href="#SvgjsG3172" transform="translate(756, 0) scale(2.8)" fill="rgba(231, 206, 231, 1)"></use><use xlink:href="#SvgjsG3171" transform="translate(756, 84) scale(2.8)" fill="rgba(231, 206, 231, 1)"></use><use xlink:href="#SvgjsG3172" transform="translate(756, 168) scale(2.8)" fill="rgba(231, 206, 231, 1)"></use><use xlink:href="#SvgjsG3168" transform="translate(756, 252) scale(2.8)" fill="rgba(231, 206, 231, 1)"></use><use xlink:href="#SvgjsG3171" transform="translate(756, 336) scale(2.8)" fill="rgba(231, 206, 231, 1)"></use><use xlink:href="#SvgjsG3171" transform="translate(756, 420) scale(2.8)" fill="rgba(231, 206, 231, 1)"></use><use xlink:href="#SvgjsG3171" transform="translate(756, 504) scale(2.8)" fill="rgba(231, 206, 231, 1)"></use></g></defs></svg>